<?xml version="1.0" standalone="no"?>
<!DOCTYPE svg PUBLIC "-//W3C//DTD SVG 20010904//EN"
 "http://www.w3.org/TR/2001/REC-SVG-20010904/DTD/svg10.dtd">
<svg version="1.0" xmlns="http://www.w3.org/2000/svg"
 width="300.000000pt" height="300.000000pt" viewBox="0 0 300.000000 300.000000"
 preserveAspectRatio="xMidYMid meet">
<metadata>
Created by potrace 1.10, written by Peter Selinger 2001-2011
</metadata>
<g transform="translate(0.000000,300.000000) scale(0.050000,-0.050000)"
fill="#000000" stroke="none">
<path d="M1218 5965 c-7 -97 -18 -147 -47 -202 -40 -77 -39 -121 1 -166 28
-30 29 -44 6 -101 -18 -46 -27 -189 -29 -476 -3 -489 0 -486 -204 -248 -130
150 -133 120 53 518 115 246 128 310 63 310 -21 0 -44 -18 -51 -40 -7 -22 -20
-40 -30 -40 -10 0 -23 -19 -30 -41 -8 -25 -25 -38 -42 -31 -26 10 -39 -33 -29
-104 5 -42 -70 -125 -93 -102 -14 14 -28 -2 -45 -46 -13 -36 -33 -83 -44 -103
-11 -20 -22 -85 -26 -145 -4 -60 -16 -120 -28 -134 -11 -14 -20 -63 -19 -110
0 -46 -9 -96 -20 -110 -12 -14 -28 -95 -36 -180 -11 -124 -48 -243 -48 -155 0
11 -9 21 -19 21 -11 0 -16 -65 -11 -155 4 -91 -1 -165 -14 -180 -15 -18 -14
-51 4 -116 22 -78 21 -94 -7 -126 -39 -43 -14 -147 51 -210 22 -21 33 -51 27
-68 -7 -17 3 -47 20 -67 27 -29 29 -52 13 -127 -20 -93 -11 -110 33 -66 29 29
62 -9 63 -70 0 -91 190 -417 233 -401 33 13 33 15 -42 212 -112 298 -62 475
187 655 88 63 228 98 251 61 8 -14 43 -17 89 -10 155 25 300 -104 241 -214
-18 -33 -15 -49 12 -79 19 -21 29 -51 22 -68 -15 -39 -80 -40 -112 -2 -20 24
-36 24 -114 -5 l-91 -34 -48 56 c-38 44 -48 79 -48 164 0 136 -33 131 -107
-16 -123 -244 -35 -736 135 -750 56 -5 78 -18 92 -53 14 -38 36 -48 134 -58
232 -24 290 -34 326 -53 109 -58 134 7 30 75 -84 54 -85 64 -18 143 47 56 50
73 41 190 -11 134 -2 152 85 152 74 0 113 -172 75 -326 -12 -47 -19 -52 -53
-34 -32 17 -40 15 -40 -9 0 -17 8 -31 18 -31 10 0 24 -32 31 -71 37 -196 154
22 179 331 5 61 9 117 10 125 4 33 38 12 51 -30 8 -26 18 -35 24 -21 5 14 -4
45 -22 70 -17 25 -31 64 -31 88 0 166 -435 538 -720 617 -71 19 -141 39 -155
43 -33 9 -35 248 -2 248 12 0 87 -49 166 -110 79 -60 154 -110 165 -110 12 0
79 -32 149 -72 174 -98 269 -139 392 -168 72 -16 113 -38 128 -67 52 -100 389
-536 447 -577 11 -8 33 -23 48 -34 18 -11 29 -53 29 -107 0 -80 4 -88 40 -79
40 10 40 11 2 26 -21 8 -28 16 -14 17 59 3 50 100 -20 206 -204 309 -401 1017
-344 1240 9 37 1 74 -26 121 -22 37 -50 116 -64 175 -13 60 -42 168 -64 239
-22 72 -48 229 -59 350 -42 456 -46 476 -83 481 -19 3 -35 -3 -35 -13 0 -10 7
-18 15 -18 8 0 15 -160 15 -355 1 -343 32 -632 72 -656 10 -6 18 -48 18 -92 0
-45 18 -157 41 -250 22 -93 38 -179 36 -193 -2 -13 15 -88 39 -166 50 -163 53
-191 21 -223 -45 -45 -230 157 -205 223 6 15 -4 32 -22 39 -30 12 -30 16 -1
44 38 39 41 109 4 109 -17 0 -33 33 -41 85 -7 47 -17 103 -22 125 -5 22 -15
85 -22 140 -7 55 -21 110 -30 122 -10 11 -9 51 2 89 19 65 3 98 -47 99 -10 0
-6 14 8 32 22 26 22 34 -1 48 -35 22 -46 396 -13 439 15 18 15 24 2 16 -14 -8
-23 11 -24 51 -13 339 -12 469 3 459 11 -6 13 22 5 67 -7 43 -13 103 -13 133
0 55 -1 55 -135 53 -89 -2 -116 -7 -78 -15 l58 -13 -82 -53 c-47 -31 -84 -44
-88 -32 -4 12 -27 23 -52 25 -41 3 -40 0 16 -55 66 -64 46 -144 -34 -145 -22
0 -33 -13 -29 -33 3 -19 -3 -39 -14 -46 -10 -6 -14 -28 -8 -50 8 -30 -2 -39
-47 -44 -41 -5 -57 -18 -59 -47 -4 -110 -33 -190 -70 -190 -21 0 -38 -10 -38
-21 0 -12 11 -15 25 -6 19 11 20 8 3 -14 -32 -43 -51 -103 -28 -89 11 7 20 3
20 -9 0 -11 -8 -21 -18 -21 -10 0 -14 -18 -8 -40 6 -22 19 -40 29 -40 10 0 4
-27 -12 -59 -17 -32 -31 -82 -31 -110 0 -30 -11 -51 -27 -51 -36 0 -52 118
-60 440 -4 138 -11 264 -15 280 -4 17 6 31 22 33 17 1 41 3 55 5 39 3 29 38
-17 63 -26 14 -38 15 -30 2 7 -11 5 -25 -5 -31 -25 -15 -41 79 -20 112 9 14
17 55 17 90 0 35 9 86 20 115 17 46 14 51 -30 51 -33 0 -51 -12 -52 -35z m753
-70 c-86 -272 -62 -1222 38 -1545 17 -55 31 -117 31 -139 0 -21 37 -114 81
-206 121 -249 93 -268 -107 -72 -141 138 -352 307 -384 307 -5 0 -60 34 -122
75 l-112 75 11 130 c11 128 25 184 94 360 19 50 40 122 45 160 6 39 31 120 55
180 24 61 56 146 71 190 16 44 50 125 77 180 72 148 111 243 111 271 0 30 59
77 97 78 20 1 23 -12 14 -44z m-1102 -1179 c23 -39 66 -108 96 -153 30 -45 55
-90 55 -100 0 -9 18 -33 40 -53 67 -61 140 -204 140 -274 0 -37 14 -121 31
-186 32 -125 28 -170 -18 -170 -77 0 -357 -167 -438 -261 -66 -77 -156 -131
-155 -94 0 3 9 57 19 121 14 81 12 131 -3 166 -17 37 -17 96 0 234 13 101 28
241 34 310 13 148 43 314 68 384 11 28 24 75 31 106 16 71 48 61 100 -30z
m431 -194 c0 -85 -74 -145 -91 -74 -16 62 2 120 31 102 12 -7 20 -6 18 4 -6
34 3 48 22 36 11 -7 20 -37 20 -68z m585 -1194 c19 -7 36 -21 38 -30 1 -10 4
-27 7 -38 3 -11 6 -30 8 -41 1 -12 12 -15 25 -7 13 8 19 3 13 -14 -5 -15 -26
-27 -48 -26 -123 6 -120 4 -125 100 -4 70 1 89 21 80 14 -7 42 -18 61 -24z
m-173 -237 c16 -66 -3 -91 -74 -91 -68 0 -91 38 -59 98 32 61 117 56 133 -7z
m-339 -1 c-7 -18 0 -30 16 -30 31 0 41 -26 61 -155 8 -47 26 -98 42 -114 15
-15 28 -37 28 -48 0 -11 29 -43 65 -71 l65 -52 -51 0 c-28 0 -89 28 -135 61
-46 34 -92 56 -103 50 -39 -25 -141 149 -141 240 0 127 14 149 94 149 54 0 68
-7 59 -30z m486 -125 c0 -62 -40 -125 -78 -125 -24 0 -15 121 12 165 23 38 67
12 66 -40z m-215 -132 c28 -27 45 -31 64 -15 14 12 32 16 39 8 22 -22 14 -46
-15 -46 -16 0 -32 -10 -36 -23 -10 -28 -147 105 -140 136 3 12 -11 28 -30 36
-30 11 -31 16 -6 31 22 14 37 4 58 -36 15 -30 45 -70 66 -91z"/>
<path d="M854 3773 c-53 -25 -91 -50 -84 -57 7 -6 37 -1 66 13 30 13 76 33
103 44 27 11 40 25 29 32 -10 6 -62 -8 -114 -32z"/>
<path d="M2660 5979 c0 -11 10 -19 22 -19 12 0 44 -18 72 -40 28 -22 58 -35
66 -30 9 5 20 -13 25 -40 5 -28 0 -50 -12 -50 -11 0 -3 -13 18 -29 22 -17 64
-30 94 -30 45 -1 55 -10 55 -51 0 -27 9 -50 20 -50 11 0 20 27 20 61 0 35 12
65 30 72 57 22 30 44 -46 37 -79 -8 -94 8 -133 144 -13 45 -231 69 -231 25z"/>
<path d="M3009 5945 c25 -102 121 -134 102 -34 -9 51 11 59 122 50 24 -2 49 6
56 18 9 14 -37 21 -140 21 l-153 0 13 -55z"/>
<path d="M3475 5987 c14 -6 25 -20 25 -31 0 -11 -13 -15 -28 -10 -15 6 -45 -1
-65 -16 -42 -31 19 -25 103 10 22 9 67 26 100 37 54 18 50 20 -50 20 -60 0
-99 -5 -85 -10z"/>
<path d="M3693 5970 c-13 -33 62 -63 90 -35 11 11 -1 27 -31 40 -38 18 -51 17
-59 -5z"/>
<path d="M3852 5976 c8 -12 17 -78 21 -145 3 -66 14 -242 23 -391 9 -148 9
-279 0 -289 -9 -11 -16 -7 -16 10 -1 25 -4 25 -20 -1 -24 -38 -25 -205 -1
-309 10 -43 12 -88 5 -100 -19 -28 -18 -209 1 -198 8 5 11 -45 7 -111 -4 -77
1 -123 16 -128 15 -5 14 -18 -5 -41 -16 -18 -20 -33 -10 -33 11 0 20 -97 22
-215 2 -155 -2 -205 -17 -180 -11 20 -14 55 -7 78 8 26 6 37 -7 30 -23 -15
-49 89 -94 377 -18 110 -42 219 -53 243 -12 24 -16 53 -8 65 7 12 5 22 -5 22
-16 0 -31 134 -56 500 -3 39 -6 122 -7 185 -1 99 -6 115 -39 115 -40 0 -66
-43 -52 -85 4 -14 13 -92 18 -175 6 -82 15 -181 20 -220 6 -38 20 -155 32
-260 13 -104 35 -230 50 -280 14 -49 33 -148 40 -219 7 -71 25 -159 40 -194
15 -36 33 -109 40 -161 8 -53 27 -134 44 -181 45 -122 19 -148 -115 -113 -76
20 -111 21 -138 4 -40 -25 -161 44 -161 93 0 14 -14 38 -32 52 -18 16 -28 46
-22 74 7 35 1 45 -24 41 -38 -8 -55 -91 -24 -122 12 -12 22 -45 22 -73 1 -68
26 -105 63 -91 16 6 46 -7 66 -29 28 -31 44 -35 75 -19 53 29 181 16 211 -21
20 -26 27 -26 42 -4 44 66 97 -16 121 -189 13 -91 35 -204 49 -252 25 -83 22
-236 -4 -236 -48 1 -103 29 -103 53 0 20 -17 25 -62 17 -60 -11 -61 -10 -48
52 14 61 12 63 -38 50 -32 -8 -52 -4 -52 9 0 12 -9 16 -20 9 -11 -7 -20 -3
-20 9 0 12 -22 32 -48 44 -29 13 -53 46 -62 84 -13 63 -13 63 -32 14 l-19 -48
-31 44 c-17 23 -26 51 -20 60 6 10 -6 33 -26 52 -29 26 -40 27 -47 7 -11 -33
-75 27 -75 70 0 16 -22 35 -48 42 -65 16 -89 109 -38 149 34 27 34 28 -2 15
-23 -8 -46 -3 -57 12 -14 21 -20 21 -28 1 -16 -38 -47 -30 -47 13 0 21 -13 43
-30 49 -16 7 -30 23 -30 37 -1 14 -23 47 -51 73 -34 33 -44 55 -30 72 22 26 6
111 -21 111 -10 0 -18 -9 -18 -20 0 -11 -14 -20 -31 -20 -17 0 -26 9 -19 19 6
11 -7 38 -29 60 -23 23 -41 53 -41 68 0 15 -18 43 -40 63 -22 20 -40 53 -40
74 0 36 -51 72 -73 50 -28 -28 137 -430 225 -548 27 -35 48 -73 48 -84 0 -11
17 -30 39 -41 21 -12 44 -39 51 -61 7 -22 25 -40 41 -40 15 0 38 -19 51 -43
12 -24 64 -86 115 -139 51 -52 138 -142 193 -199 131 -136 293 -247 620 -427
281 -154 339 -159 241 -20 -38 54 -131 320 -143 408 -20 145 -31 520 -15 523
9 1 81 5 159 8 100 3 178 20 260 55 65 28 161 66 213 85 52 19 95 41 95 49 0
7 54 30 121 50 66 20 149 58 184 83 72 54 128 60 173 19 18 -16 116 -70 218
-121 102 -51 205 -115 228 -142 24 -27 52 -49 62 -49 10 0 63 -22 118 -50 119
-60 116 -59 116 -14 0 25 -31 47 -101 73 -61 22 -109 53 -121 79 -10 23 -90
123 -177 221 -172 196 -179 227 -58 269 104 36 155 28 168 -27 7 -26 30 -64
51 -83 21 -19 38 -46 38 -61 0 -15 7 -27 17 -27 17 0 143 -165 167 -219 7 -17
14 28 15 99 1 93 -10 150 -38 200 -58 105 -74 140 -123 265 -25 63 -57 115
-72 115 -14 0 -26 17 -26 37 0 20 -19 54 -41 74 -24 22 -37 53 -32 74 6 21 -2
42 -19 48 -15 6 -28 27 -28 47 0 20 -13 41 -28 47 -16 6 -49 65 -73 132 -24
66 -52 121 -61 121 -9 0 -31 32 -49 70 -19 39 -42 70 -51 70 -10 0 -18 12 -18
27 0 15 -43 98 -95 185 -52 87 -106 183 -120 213 -13 30 -33 55 -45 55 -11 0
-20 10 -20 21 0 30 -102 240 -143 295 -52 70 -84 2 -45 -95 55 -138 176 -639
185 -766 2 -21 19 -35 43 -35 23 0 50 -20 61 -45 12 -25 54 -101 95 -169 41
-68 105 -176 143 -240 38 -64 85 -128 105 -142 60 -44 41 -77 -69 -119 -145
-56 -147 -51 -286 441 -23 81 -41 114 -60 107 -28 -11 -169 236 -169 296 0 17
-8 47 -18 66 -17 35 -28 61 -93 225 -19 50 -52 127 -72 171 -20 45 -37 92 -37
105 0 12 -13 52 -28 88 -16 36 -40 95 -53 131 -18 48 -36 65 -71 65 -52 0 -65
-35 -19 -52 15 -6 27 -26 26 -45 -1 -18 18 -73 42 -122 23 -49 43 -106 43
-128 0 -22 13 -54 29 -72 16 -17 40 -76 54 -131 14 -55 41 -124 61 -153 20
-29 31 -68 24 -85 -7 -18 -2 -32 10 -32 12 0 22 -12 22 -27 0 -15 22 -51 48
-79 27 -29 54 -80 60 -113 7 -34 17 -87 23 -120 6 -32 24 -69 40 -82 16 -13
29 -40 29 -60 0 -20 9 -42 20 -49 11 -7 20 -31 20 -54 0 -23 16 -54 35 -68 33
-25 33 -27 0 -27 -19 -1 -35 -15 -35 -32 0 -17 8 -26 19 -20 10 6 24 2 31 -9
7 -12 6 -20 -4 -18 -39 7 -47 -4 -20 -31 17 -17 25 -50 19 -81 -9 -47 -5 -51
44 -42 43 8 52 4 43 -21 -8 -19 1 -34 23 -40 88 -24 141 -248 58 -247 -52 1
-80 35 -39 48 30 10 37 26 30 72 -11 76 -31 76 -87 0 -52 -70 -96 -76 -147
-20 -20 22 -52 40 -72 40 -40 0 -65 58 -46 107 7 18 3 33 -8 33 -36 0 -87 64
-75 94 6 15 3 24 -5 18 -26 -15 -74 24 -74 60 0 19 -15 36 -32 39 -40 6 -204
162 -236 225 -14 25 -47 54 -74 65 -28 10 -45 28 -38 38 6 11 -6 35 -28 54
-22 19 -35 42 -30 51 6 9 -6 17 -26 18 -23 1 -27 5 -10 12 20 7 16 18 -14 39
-22 15 -36 40 -30 55 6 15 -23 60 -64 100 -41 40 -66 72 -56 72 10 1 -12 16
-49 34 -96 47 -108 98 -111 461 l-2 325 -66 0 c-46 0 -62 -7 -52 -24z m203
-883 c68 -209 500 -751 680 -855 169 -97 156 -148 -51 -208 -69 -20 -130 -44
-136 -53 -6 -9 -54 -36 -108 -59 -53 -23 -113 -59 -132 -80 -19 -21 -43 -38
-54 -38 -11 0 -57 -31 -103 -68 -121 -99 -125 -90 -127 338 -2 334 -43 890
-76 1022 -29 114 70 115 107 1z m878 -1122 c-6 -17 -26 -31 -42 -31 -37 0 -38
9 -9 63 25 48 71 20 51 -32z m-233 -82 c0 -16 -16 -36 -35 -43 -19 -7 -42 -25
-51 -39 -17 -29 -74 -37 -74 -12 0 18 123 124 145 124 8 1 15 -13 15 -30z
m-721 -244 c11 -42 9 -70 -4 -78 -24 -15 -79 50 -63 76 5 9 1 32 -9 52 -11 22
-11 54 2 85 l20 50 19 -60 c10 -33 26 -89 35 -125z m541 106 c0 -16 -7 -33
-16 -38 -26 -16 -70 20 -55 45 19 32 71 27 71 -7z"/>
<path d="M5340 5970 c-14 -17 -35 -29 -48 -28 -52 6 -70 -4 -59 -33 15 -39 97
-30 97 11 1 17 16 29 34 27 20 -1 29 9 22 25 -13 35 -15 35 -46 -2z"/>
<path d="M5825 5975 c13 -63 105 -75 121 -15 9 34 0 40 -58 40 -44 0 -66 -9
-63 -25z"/>
<path d="M5694 5947 c-7 -7 -33 -13 -58 -15 -33 -1 -47 -15 -48 -48 l-3 -46
44 41 c24 23 54 41 67 41 13 0 24 9 24 20 0 23 -8 25 -26 7z"/>
<path d="M384 5895 c6 -47 116 -81 116 -36 0 11 -23 21 -52 21 -38 0 -49 8
-41 30 7 17 2 30 -9 30 -11 0 -18 -20 -14 -45z"/>
<path d="M972 5889 c-17 -47 -16 -49 28 -49 46 0 52 25 12 58 -21 18 -30 16
-40 -9z"/>
<path d="M2128 5848 c7 -17 12 -36 12 -42 0 -6 14 0 30 14 42 35 37 60 -12 60
-30 0 -39 -9 -30 -32z"/>
<path d="M2406 5850 c-28 -31 5 -50 87 -50 36 0 48 9 43 33 -8 45 -76 53 -77
10 -2 -30 -3 -30 -15 0 -12 27 -18 28 -38 7z"/>
<path d="M3300 5821 c0 -25 79 -68 95 -52 7 6 -5 25 -26 41 -46 34 -69 38 -69
11z"/>
<path d="M633 5367 c-7 -8 -13 -36 -13 -64 0 -49 1 -49 29 -12 45 60 32 123
-16 76z"/>
<path d="M2500 5180 c0 -22 -10 -40 -22 -40 -16 0 -15 -9 2 -30 13 -16 33 -25
42 -19 25 16 23 129 -2 129 -11 0 -20 -18 -20 -40z"/>
<path d="M4204 5159 c3 -36 15 -69 26 -72 30 -10 24 84 -6 113 -22 20 -26 12
-20 -41z"/>
<path d="M5915 5066 c-44 -11 -44 -18 5 -81 22 -28 40 -67 40 -87 0 -19 10
-42 21 -49 14 -8 20 28 17 109 -5 121 -9 127 -83 108z"/>
<path d="M4407 4950 c-6 -16 -19 -25 -29 -19 -10 6 -18 4 -18 -5 0 -9 32 -26
70 -38 69 -22 70 -21 70 35 0 62 -17 71 -59 32 -21 -20 -24 -20 -13 0 8 14 9
25 3 25 -7 0 -17 -13 -24 -30z"/>
<path d="M116 4687 c-53 -121 -25 -987 35 -1092 17 -31 29 -71 26 -90 -8 -59
24 -187 44 -174 11 6 19 -22 19 -65 0 -69 58 -246 148 -452 18 -42 28 -84 23
-93 -6 -10 -1 -21 12 -25 13 -5 18 -18 11 -30 -25 -40 -87 -4 -111 64 -13 36
-46 98 -72 136 -26 38 -59 104 -73 147 -14 42 -38 92 -53 110 -15 18 -37 67
-48 110 -34 122 -85 180 -70 80 6 -43 26 -94 44 -114 18 -20 28 -45 22 -55
-35 -55 190 -596 271 -652 32 -23 32 -28 3 -71 -36 -50 45 -144 114 -131 19 4
32 -9 34 -34 1 -22 19 -52 39 -67 34 -25 34 -28 -11 -70 -33 -32 -40 -48 -23
-59 14 -9 19 -32 12 -55 -9 -27 -3 -44 17 -52 17 -6 31 -20 31 -30 0 -35 -63
-43 -93 -13 -17 17 -37 26 -46 21 -8 -5 -11 10 -7 35 13 67 -27 156 -63 141
-17 -6 -32 -31 -32 -54 -2 -42 -2 -42 -17 -3 -9 22 -7 55 5 74 17 26 10 45
-33 87 -30 30 -54 75 -54 100 0 25 -6 62 -14 82 -12 33 -10 34 21 9 40 -33 59
-21 41 25 -7 18 -29 33 -50 33 -24 0 -38 14 -38 39 0 21 -17 51 -38 65 -21 15
-59 63 -85 106 l-47 80 -7 -58 c-7 -68 52 -272 79 -272 10 0 18 -29 18 -65 0
-36 22 -103 48 -149 27 -46 54 -111 62 -145 7 -34 31 -71 52 -82 21 -11 38
-32 38 -46 0 -14 40 -84 90 -154 49 -71 90 -149 90 -174 0 -32 12 -45 40 -45
28 0 40 -13 40 -46 0 -26 17 -65 38 -87 66 -71 126 -208 114 -258 -7 -26 -3
-52 8 -59 11 -7 34 -44 50 -83 19 -45 38 -65 53 -55 16 10 20 4 12 -16 -7 -17
1 -49 16 -71 15 -22 22 -45 16 -51 -14 -14 84 -114 112 -114 12 0 21 -13 21
-30 0 -16 13 -30 29 -30 16 0 39 -18 51 -40 12 -22 32 -37 46 -35 13 3 22 -6
19 -20 -3 -14 9 -25 26 -25 16 0 35 -13 42 -30 6 -16 31 -30 54 -30 31 -1 36
-5 16 -18 -21 -13 -20 -19 5 -29 18 -6 32 -22 32 -35 0 -13 19 -40 43 -61 29
-25 34 -37 15 -37 -24 -1 -24 -3 0 -18 15 -10 22 -32 15 -50 -10 -27 -5 -29
26 -12 57 30 61 26 61 -51 0 -62 4 -68 37 -51 50 27 110 -69 62 -99 -20 -12
10 -18 90 -19 l118 0 -53 56 c-30 31 -54 68 -54 82 0 14 -31 64 -70 111 -112
136 -80 182 50 70 104 -90 276 -219 292 -219 8 0 44 -23 80 -50 50 -38 89 -50
169 -50 l103 0 -107 57 c-167 89 -246 135 -352 207 -153 104 -171 115 -241
147 -36 17 -74 25 -85 18 -10 -6 -19 3 -19 20 0 17 -38 58 -85 91 -291 207
-407 331 -509 540 -45 94 -92 215 -105 270 -58 265 -104 576 -123 832 -11 163
-40 367 -69 485 -27 112 -49 249 -49 306 0 83 -7 104 -37 112 -36 9 -69 125
-93 315 -3 28 -25 89 -49 137 -31 61 -40 104 -30 146 9 41 0 86 -27 144 -86
178 -122 288 -139 423 -17 142 -19 397 -4 448 17 54 -41 44 -65 -11z"/>
<path d="M3073 4407 c-21 -21 -15 -147 7 -147 11 0 20 16 20 35 0 19 6 55 13
80 11 43 -11 60 -40 32z"/>
<path d="M3349 4030 c-18 -94 20 -141 50 -62 27 71 27 83 -8 111 -24 20 -31
12 -42 -49z"/>
<path d="M4990 3611 c-341 -75 -890 -429 -890 -574 0 -60 46 -42 136 53 104
111 154 124 103 28 -119 -222 -25 -623 150 -643 51 -6 108 -24 127 -41 54 -48
184 -74 298 -61 71 8 135 2 203 -20 138 -45 303 -5 303 73 0 11 25 71 55 132
76 158 83 581 10 680 -130 175 58 149 262 -36 197 -180 235 -315 153 -547 -66
-187 -29 -250 56 -97 50 89 66 562 21 648 -54 105 -374 310 -537 344 -38 8
-92 26 -120 40 -81 41 -202 49 -330 21z m-134 -222 c59 -42 56 -94 -17 -221
-107 -187 -253 -264 -359 -188 -177 126 15 389 321 438 5 1 30 -12 55 -29z
m435 -10 c6 -10 -9 -27 -32 -39 -51 -28 -45 -104 9 -112 49 -7 74 -46 67 -106
-11 -108 -200 -44 -200 67 0 46 -16 60 -60 53 -8 -1 -15 17 -15 40 0 26 10 39
25 33 35 -13 104 14 108 42 1 13 3 31 5 41 2 21 78 5 93 -19z m-260 -221 c17
-27 -25 -69 -86 -87 -54 -17 -83 34 -45 79 29 35 112 40 131 8z m-30 -180 c32
-59 -42 -140 -96 -106 -44 28 -55 82 -24 119 35 42 94 36 120 -13z m369 -61
c33 -6 41 -26 46 -108 8 -131 -24 -218 -71 -199 -117 48 -142 20 -52 -57 58
-51 38 -149 -26 -125 -17 7 -57 12 -89 12 -38 0 -58 10 -58 30 0 36 3 36 -92
3 -81 -27 -240 -22 -259 9 -6 10 -28 18 -49 18 -20 0 -40 11 -44 23 -5 13 -42
26 -84 30 -104 8 -152 67 -152 186 0 124 117 225 153 131 8 -21 21 -24 46 -10
46 24 61 8 61 -65 0 -63 48 -183 96 -240 125 -146 501 110 408 278 -24 43 77
156 106 118 12 -14 39 -30 60 -34z m-245 -108 c-12 -63 -138 -169 -202 -169
-34 0 -44 9 -36 30 8 21 -1 30 -28 30 -46 0 -86 79 -55 110 12 13 34 1 63 -35
41 -51 153 -74 153 -32 0 50 44 117 77 117 29 0 35 -11 28 -51z"/>
<path d="M2561 2818 c-1 -22 -16 -31 -48 -27 -29 3 -46 -6 -46 -23 0 -15 12
-28 28 -28 15 0 22 9 15 20 -17 27 16 26 44 -2 29 -29 45 3 25 52 -12 30 -17
32 -18 8z"/>
<path d="M5641 2825 c1 -8 33 -41 70 -72 l69 -57 0 72 c0 69 -3 72 -70 72 -38
0 -69 -7 -69 -15z"/>
<path d="M992 2594 c-59 -43 -28 -95 52 -88 55 4 66 13 66 55 0 58 -60 75
-118 33z"/>
<path d="M2228 2503 c8 -13 5 -23 -7 -23 -11 0 -21 -10 -21 -21 0 -38 56 -79
89 -67 40 16 41 48 1 48 -16 0 -30 13 -30 29 0 16 -10 35 -23 43 -14 9 -18 5
-9 -9z"/>
<path d="M845 2446 c-39 -14 -30 -38 26 -63 65 -29 69 -29 69 6 0 35 -59 70
-95 57z"/>
<path d="M1150 2337 c-33 -8 -85 -20 -115 -26 -30 -7 -55 -22 -55 -34 0 -12
18 -17 42 -11 24 6 60 1 81 -12 30 -19 42 -18 55 4 10 15 27 21 38 14 11 -7
44 -3 72 7 62 24 112 8 112 -35 0 -25 5 -27 24 -8 13 13 41 24 63 24 21 0 51
16 67 35 16 19 23 23 15 7 -10 -18 -5 -24 13 -18 17 6 41 -18 62 -62 25 -53
35 -61 35 -31 1 23 11 51 23 63 24 24 6 73 -21 57 -9 -6 -28 3 -42 20 -13 16
-39 26 -57 20 -36 -11 -178 -13 -282 -5 -38 4 -97 -1 -130 -9z"/>
<path d="M5823 2322 c-15 -9 -44 -13 -65 -7 -28 7 -38 -1 -38 -33 0 -44 10
-48 108 -46 66 2 100 40 68 78 -24 30 -36 32 -73 8z"/>
<path d="M1859 2280 c-143 -25 -156 -88 -15 -72 53 6 98 -1 127 -21 29 -19 80
-27 142 -23 91 7 94 9 47 30 -41 19 -43 24 -12 25 21 0 32 7 25 15 -26 25 -74
23 -129 -6 -70 -36 -105 -35 -56 2 41 31 43 28 -48 60 -5 1 -42 -3 -81 -10z"/>
<path d="M5447 2230 c-16 -42 21 -79 62 -63 43 16 39 47 -9 73 -32 17 -43 15
-53 -10z"/>
<path d="M4200 2219 c0 -12 8 -16 18 -10 10 6 14 -7 8 -29 -9 -35 -3 -38 50
-28 54 11 61 6 73 -47 16 -74 130 -89 133 -17 0 23 6 30 12 16 7 -20 16 -20
38 -2 22 18 28 15 28 -19 0 -38 10 -41 129 -36 70 3 124 -2 119 -10 -5 -8 1
-20 12 -27 12 -7 20 -6 18 4 -7 42 4 86 22 86 12 0 15 -21 8 -50 -13 -53 -3
-58 62 -30 22 9 29 18 15 19 -14 0 -25 11 -25 23 0 13 18 18 40 12 29 -7 40 0
40 26 0 33 -50 70 -84 63 -88 -18 -236 -20 -236 -4 0 11 -20 20 -45 19 -25 0
-58 1 -75 4 -64 9 -102 -2 -88 -27 11 -20 8 -20 -13 0 -15 14 -45 25 -68 26
-23 0 -58 13 -80 30 -45 34 -111 39 -111 8z m489 -90 c37 -27 35 -29 -25 -29
-61 0 -80 18 -51 47 19 19 32 16 76 -18z"/>
<path d="M5224 2119 c-27 -11 -41 -28 -33 -41 10 -15 0 -18 -28 -9 -56 18 -82
0 -69 -49 12 -47 46 -54 46 -10 0 32 18 37 69 18 29 -11 29 -15 -3 -39 -29
-21 -31 -31 -11 -52 20 -20 25 -19 25 8 0 23 10 30 33 21 22 -8 29 -5 20 10
-25 40 9 124 50 124 22 0 34 9 27 20 -15 24 -64 24 -126 -1z"/>
<path d="M5826 2118 c-19 -19 -269 -44 -411 -41 -59 1 -75 -31 -24 -50 23 -9
25 -18 8 -39 -17 -20 -16 -34 7 -57 26 -25 32 -26 41 -2 6 16 -4 32 -23 37
-25 7 -23 10 9 12 24 1 48 -9 54 -23 6 -15 15 -9 23 18 12 38 28 43 130 43 98
0 119 -7 138 -43 12 -24 19 -29 16 -13 -4 17 7 42 24 57 29 24 29 25 0 16 -17
-5 -44 0 -60 10 -20 14 -3 17 55 11 84 -10 127 11 127 60 0 32 -83 35 -114 4z"/>
<path d="M3225 2010 c0 -64 19 -64 48 0 20 43 18 50 -12 50 -25 0 -36 -15 -36
-50z"/>
<path d="M5985 1951 c-3 -54 -13 -126 -23 -160 -35 -121 -121 -365 -211 -598
-50 -130 -91 -253 -91 -273 0 -46 131 -332 159 -349 12 -8 21 -34 21 -60 0
-26 13 -52 29 -58 16 -6 52 -54 79 -107 l50 -96 1 126 c1 115 -21 197 -59 224
-49 35 -161 301 -148 352 13 51 16 52 30 17 13 -34 15 -32 17 14 0 30 12 59
26 65 19 9 20 15 1 23 -18 9 -13 24 16 55 22 24 36 60 31 79 -5 19 -1 35 9 35
10 0 18 13 18 29 0 16 14 37 30 46 26 15 30 71 25 376 -3 197 -8 315 -10 260z"/>
<path d="M2627 1906 c-34 -82 -24 -174 26 -230 68 -74 122 -26 74 68 -17 35
-22 85 -14 145 16 118 -39 130 -86 17z"/>
<path d="M3460 860 c-211 -47 -686 -55 -786 -13 -84 35 -114 22 -114 -46 0
-124 126 -368 204 -392 119 -38 377 -62 398 -37 32 39 4 68 -67 68 -244 0
-401 67 -381 163 8 44 1 69 -31 99 -83 76 -53 119 49 70 80 -39 390 -60 505
-34 242 54 287 62 417 74 269 25 523 -7 589 -75 100 -102 54 -182 -79 -138
-96 31 -214 21 -214 -19 0 -23 35 -33 150 -41 185 -13 222 -31 197 -97 l-18
-48 -434 12 c-362 10 -699 -5 -585 -27 17 -3 39 -7 50 -10 11 -2 31 -5 45 -7
14 -1 25 -22 26 -47 0 -40 3 -41 20 -11 19 32 56 34 405 25 520 -14 612 11
627 169 28 318 -419 484 -973 362z"/>
<path d="M348 837 c-36 -41 -36 -43 -1 -30 20 7 49 13 64 13 16 0 23 12 16 30
-15 41 -34 38 -79 -13z"/>
<path d="M0 583 c0 -69 5 -80 34 -69 21 8 25 16 10 21 -16 6 -18 19 -4 45 14
26 11 43 -10 60 -26 21 -30 13 -30 -57z"/>
<path d="M5687 393 c-49 -39 -177 -126 -337 -228 -22 -14 -59 -34 -83 -44 -24
-10 -48 -27 -55 -37 -6 -11 -43 -25 -81 -33 -129 -24 -99 -51 58 -51 139 0
155 4 196 53 114 134 177 173 205 127 7 -11 28 -19 46 -18 19 0 24 5 11 11
-36 15 29 127 74 127 39 0 79 55 79 109 0 45 -48 38 -113 -16z"/>
</g>
</svg>
