<?xml version="1.0" standalone="no"?>
<!DOCTYPE svg PUBLIC "-//W3C//DTD SVG 20010904//EN"
 "http://www.w3.org/TR/2001/REC-SVG-20010904/DTD/svg10.dtd">
<svg version="1.0" xmlns="http://www.w3.org/2000/svg"
 width="300.000000pt" height="300.000000pt" viewBox="0 0 300.000000 300.000000"
 preserveAspectRatio="xMidYMid meet">
<metadata>
Created by potrace 1.10, written by Peter Selinger 2001-2011
</metadata>
<g transform="translate(0.000000,300.000000) scale(0.050000,-0.050000)"
fill="#000000" stroke="none">
<path d="M976 5985 c602 -3 982 -13 975 -24 -7 -10 7 -37 31 -59 39 -36 40
-43 12 -71 -93 -93 -81 -1088 18 -1481 77 -305 152 -471 206 -456 53 13 70
126 19 126 -25 0 -35 16 -36 55 0 103 -14 197 -32 226 -10 16 -20 65 -22 109
-4 90 -12 130 -33 163 -8 13 -3 28 11 32 18 7 14 21 -13 52 -26 29 -30 43 -12
43 19 0 17 10 -7 37 -25 27 -32 65 -27 145 3 59 0 141 -7 182 -10 53 -5 82 18
105 18 17 22 31 9 31 -12 0 -22 20 -23 45 -1 25 -5 180 -9 345 -5 165 -15 320
-22 345 l-15 45 1252 0 c987 0 1251 -5 1251 -25 1 -20 4 -20 16 0 12 18 193
26 745 30 401 3 -625 5 -2281 5 -1655 0 -2566 -2 -2024 -5z"/>
<path d="M2820 5923 c0 -20 6 -43 14 -51 8 -8 15 -38 16 -68 2 -78 25 -104 91
-104 50 0 59 -8 59 -50 0 -27 10 -50 22 -50 14 0 19 27 14 69 -4 37 -2 65 4
61 7 -4 25 2 41 13 21 15 8 17 -48 10 -76 -11 -76 -11 -124 98 -48 109 -89
142 -89 72z"/>
<path d="M3024 5900 c3 -38 14 -67 24 -63 10 3 25 -5 34 -20 9 -14 20 -22 25
-16 6 5 -12 45 -39 89 l-50 80 6 -70z"/>
<path d="M1240 5854 c0 -25 -18 -81 -40 -124 -48 -94 -50 -126 -9 -171 28 -31
28 -50 -2 -198 -32 -156 -32 -198 -9 -729 4 -80 -35 -73 -122 20 -167 180
-198 214 -198 221 0 9 63 152 139 317 125 269 151 368 97 364 -22 -1 -52 -28
-68 -58 -16 -31 -50 -61 -75 -67 -38 -10 -47 -26 -50 -93 -3 -85 -34 -144 -66
-124 -32 20 -77 -34 -77 -92 0 -30 -13 -66 -30 -80 -20 -16 -30 -61 -30 -131
0 -59 -9 -112 -20 -119 -11 -7 -20 -42 -20 -78 0 -84 -38 -195 -62 -181 -10 6
-18 2 -18 -10 0 -11 9 -21 20 -21 11 0 20 -18 20 -40 0 -22 -7 -40 -15 -40 -9
0 -14 -34 -12 -75 2 -41 -5 -88 -14 -105 -12 -20 -18 -21 -18 -5 -1 14 -11 25
-23 25 -13 0 -18 -18 -11 -43 6 -24 2 -59 -8 -79 -12 -23 -12 -40 1 -48 43
-27 16 -170 -32 -170 -15 0 -28 -10 -28 -21 0 -12 8 -16 18 -10 10 6 25 -23
33 -64 23 -109 23 -113 -7 -136 -37 -28 -5 -148 55 -208 33 -33 38 -50 21 -71
-17 -20 -12 -34 22 -57 40 -28 42 -37 21 -121 -30 -119 -30 -124 17 -82 31 28
41 30 48 8 5 -16 20 -64 34 -108 53 -173 189 -387 224 -352 13 13 -2 86 -45
216 -106 319 -70 448 178 630 83 61 226 96 248 61 7 -11 52 -16 99 -10 161 18
277 -80 236 -199 -18 -51 -16 -66 11 -86 46 -33 20 -90 -41 -90 -27 0 -52 10
-56 21 -5 15 -37 13 -102 -4 -134 -36 -186 14 -180 174 5 139 -30 144 -105 15
-136 -232 -56 -747 119 -762 57 -5 78 -18 93 -55 16 -43 30 -49 105 -46 48 2
97 -2 108 -9 10 -7 67 -17 125 -23 58 -5 118 -20 133 -33 28 -23 88 -12 88 16
0 9 -32 36 -70 61 -84 54 -87 82 -18 147 48 45 51 56 38 173 -11 104 -8 127
18 137 18 7 33 36 34 65 l2 53 16 -50 c9 -27 17 -41 18 -31 1 11 16 0 33 -25
78 -111 69 -359 -13 -338 -39 10 -55 -33 -21 -54 10 -6 23 -38 30 -72 37 -187
173 98 173 364 0 48 10 98 23 111 29 29 7 147 -38 196 -20 22 -67 80 -105 129
-156 200 -404 352 -650 397 l-80 14 0 118 c0 146 19 153 138 55 51 -43 140
-102 198 -132 309 -163 419 -214 521 -240 131 -35 153 -46 153 -78 0 -13 32
-64 70 -114 39 -49 83 -108 99 -130 92 -128 247 -309 282 -329 41 -24 99 -181
66 -181 -9 0 -17 -8 -17 -18 0 -10 16 -14 35 -9 63 17 52 142 -23 257 -66 101
-149 268 -188 380 -77 218 -189 764 -161 782 29 18 19 106 -21 185 -21 41 -53
142 -70 224 -17 82 -46 194 -63 249 -17 55 -36 186 -41 290 -8 163 -25 332
-39 385 -2 8 -5 29 -6 45 -2 17 -17 30 -35 30 -23 0 -28 -10 -16 -35 8 -19 12
-80 8 -135 -12 -158 -10 -348 5 -510 21 -212 27 -251 43 -276 7 -12 22 -79 32
-148 10 -69 33 -193 50 -276 18 -82 32 -163 32 -180 1 -16 14 -68 31 -115 44
-124 46 -272 4 -280 -20 -5 -39 9 -47 34 -7 22 -25 41 -41 41 -33 0 -89 100
-89 159 0 23 -13 41 -30 41 -20 0 -30 -20 -30 -63 l0 -64 -145 140 c-141 136
-379 327 -405 327 -8 0 -42 20 -76 45 -35 25 -81 54 -104 66 -73 38 -52 252
50 509 20 50 41 122 46 160 6 39 31 120 55 180 24 61 55 142 69 180 15 39 58
139 97 223 39 85 78 179 85 210 8 32 24 63 36 71 11 8 14 21 5 30 -9 9 -25 0
-35 -18 -10 -19 -31 -30 -46 -24 -15 6 -32 -4 -39 -22 -9 -23 -26 -29 -55 -19
-37 11 -39 8 -20 -28 16 -30 16 -55 -2 -93 l-23 -52 -26 46 -26 46 -3 -45 c-3
-42 -7 -65 -18 -100 -2 -8 -6 -33 -7 -55 -2 -26 -15 -38 -38 -34 -19 3 -36 -4
-37 -15 -2 -12 -5 -30 -8 -41 -3 -11 -6 -34 -7 -52 -2 -20 -14 -28 -33 -21
-21 8 -30 -1 -30 -33 0 -24 7 -35 15 -24 24 32 85 29 85 -4 0 -18 -12 -26 -29
-19 -17 6 -55 -2 -85 -18 -31 -16 -42 -29 -26 -29 27 -1 27 -3 0 -20 -16 -11
-22 -20 -13 -20 10 0 6 -14 -8 -32 -18 -21 -20 -35 -5 -45 25 -16 -3 -103 -33
-103 -12 0 -21 -15 -21 -33 0 -29 5 -29 43 5 43 37 44 37 28 -2 -8 -22 -20
-73 -25 -114 -14 -97 -62 -119 -55 -24 3 37 -3 73 -13 79 -11 7 -19 45 -18 86
1 40 -2 211 -8 380 -5 171 -1 328 9 356 24 62 4 147 -33 147 -16 0 -28 -20
-28 -46z m-351 -1159 c15 -36 46 -83 69 -104 23 -20 42 -45 42 -54 0 -18 56
-107 156 -248 43 -61 61 -114 71 -213 8 -73 23 -160 35 -194 26 -73 12 -122
-32 -122 -72 0 -315 -146 -420 -252 -98 -101 -207 -144 -157 -64 8 14 17 164
19 335 5 324 46 660 101 831 18 55 36 111 39 125 12 46 50 26 77 -40z m431
-183 c0 -69 -51 -162 -72 -129 -17 27 -14 130 4 160 22 36 68 16 68 -31z m560
-1192 c0 -11 14 -20 30 -20 19 0 30 -19 30 -50 0 -125 -107 -120 -116 6 -5 65
1 84 25 84 17 0 31 -9 31 -20z m-154 -222 c35 -56 2 -98 -75 -98 -76 0 -90 28
-50 103 25 46 95 43 125 -5z m-341 -13 c-3 -14 8 -25 24 -25 31 0 41 -26 61
-153 13 -87 44 -138 137 -230 82 -82 2 -80 -120 3 -49 33 -102 60 -118 60 -38
0 -129 146 -129 207 0 133 22 175 88 169 37 -4 60 -16 57 -31z m495 -104 c0
-58 -44 -143 -68 -134 -31 10 -21 135 11 155 42 27 57 21 57 -21z m-218 -146
c41 -39 78 -46 78 -14 0 12 9 16 20 9 30 -19 24 -50 -10 -50 -16 0 -30 -9 -30
-20 0 -11 -10 -20 -21 -20 -12 0 -17 7 -12 16 6 8 -21 36 -58 62 -38 26 -63
56 -56 67 7 11 1 26 -13 35 -14 9 -18 26 -10 41 11 17 25 7 46 -33 16 -32 46
-74 66 -93z"/>
<path d="M884 3757 c-47 -23 -82 -46 -77 -51 5 -5 26 0 46 11 20 12 62 26 92
32 30 7 55 21 55 31 0 29 -20 25 -116 -23z"/>
<path d="M4548 5872 c-12 -31 8 -103 56 -205 12 -24 16 -55 11 -70 -5 -15 12
-52 37 -83 26 -30 53 -89 60 -130 8 -41 26 -92 41 -113 15 -22 27 -55 27 -72
0 -51 57 -154 93 -168 18 -6 27 -18 20 -25 -7 -7 -2 -32 13 -54 14 -23 28 -73
32 -112 3 -38 18 -84 34 -102 15 -17 28 -40 28 -52 0 -11 22 -62 49 -113 36
-66 42 -93 23 -93 -17 0 -23 -17 -17 -49 7 -38 2 -47 -28 -43 -20 4 -27 3 -15
-2 13 -4 36 -42 53 -85 26 -67 36 -75 83 -66 30 5 51 2 48 -8 -3 -9 20 -42 51
-73 50 -49 55 -66 43 -130 -17 -91 -18 -93 -63 -67 -32 17 -33 22 -6 32 32 13
51 111 20 111 -40 0 -81 -26 -81 -52 0 -15 -7 -29 -15 -30 -8 0 -33 -4 -55 -8
-21 -4 -55 10 -75 31 -20 21 -50 39 -65 39 -32 0 -61 86 -41 119 7 11 0 21
-15 21 -59 0 -82 55 -46 110 29 44 29 50 2 50 -16 0 -28 -10 -25 -22 9 -39
-44 -43 -58 -5 -19 52 -69 108 -88 96 -9 -5 -33 11 -53 36 -21 25 -54 54 -73
65 -20 11 -36 29 -36 40 0 11 -13 27 -29 36 -16 9 -24 24 -19 33 6 9 -17 28
-50 41 -35 15 -59 39 -57 58 5 60 -2 84 -22 72 -11 -7 -20 -3 -20 9 0 11 -13
21 -30 21 -17 0 -32 20 -33 45 -2 25 -6 63 -8 85 -2 22 -5 65 -6 96 -2 31 -12
51 -22 45 -11 -7 -14 -25 -8 -42 7 -18 -1 -29 -21 -29 -35 0 -44 50 -12 70 36
22 23 53 -14 33 -36 -20 -203 47 -178 72 6 6 4 21 -6 33 -9 12 -22 147 -28
299 -12 290 -15 305 -60 287 -23 -8 -27 -48 -21 -187 17 -361 17 -567 1 -567
-9 0 -11 8 -5 19 6 10 3 24 -9 31 -11 7 -21 1 -22 -14 0 -14 -4 -43 -8 -64 -4
-21 0 -107 10 -190 14 -119 11 -161 -11 -196 -17 -27 -20 -46 -7 -50 28 -9 57
-236 36 -291 -11 -30 -10 -45 5 -45 15 0 18 -37 9 -118 -9 -81 -6 -123 9 -133
17 -10 16 -19 -4 -31 -19 -12 -20 -17 -3 -18 14 0 20 -13 13 -30 -22 -58 -64
-30 -79 55 -9 47 -17 90 -18 95 -1 6 -9 55 -18 110 -45 279 -44 272 -58 310
-38 102 -53 200 -67 440 -9 149 -14 307 -12 353 3 90 -40 133 -72 71 -18 -33
-11 -295 9 -374 9 -34 40 -310 56 -500 3 -33 15 -78 27 -100 12 -22 24 -81 27
-130 3 -50 12 -108 20 -130 8 -22 25 -94 38 -160 14 -66 30 -133 36 -150 7
-16 14 -52 16 -80 3 -27 16 -88 30 -134 33 -109 21 -118 -113 -86 -91 22 -115
22 -128 2 -41 -67 -194 84 -221 218 -6 28 -19 48 -30 46 -29 -6 -37 -86 -12
-134 11 -23 23 -69 26 -102 5 -48 15 -59 49 -56 24 3 53 -8 66 -23 17 -20 55
-24 142 -16 86 8 119 4 119 -14 0 -16 19 -20 55 -13 87 19 132 -60 127 -222
-1 -24 8 -50 19 -56 11 -7 15 -20 9 -30 -6 -9 3 -56 19 -104 16 -47 26 -113
22 -146 -5 -33 -9 -71 -10 -85 -2 -38 -56 -30 -101 15 -42 42 -92 55 -69 18 9
-15 -1 -14 -31 2 -32 17 -38 30 -22 46 37 37 26 48 -59 62 -45 7 -76 21 -69
32 7 11 -11 29 -39 40 -31 12 -51 34 -51 60 0 42 -29 54 -50 20 -24 -39 -46
-19 -64 55 -14 61 -27 75 -66 75 -32 0 -58 17 -74 50 -14 28 -35 48 -46 45
-29 -7 -101 151 -73 163 16 6 15 9 -2 10 -14 1 -25 18 -26 37 0 33 -2 33 -27
0 -34 -45 -52 -44 -52 3 0 21 -15 43 -33 50 -18 7 -27 18 -21 25 6 6 -15 34
-47 61 -47 39 -55 57 -39 86 13 23 13 54 1 84 -15 37 -19 39 -20 9 -1 -26 -11
-33 -33 -25 -17 7 -35 12 -40 12 -4 0 -8 18 -8 40 0 22 -9 40 -19 40 -11 0
-34 32 -52 70 -19 39 -42 70 -51 70 -10 0 -18 16 -18 35 0 20 -18 47 -40 60
-32 20 -40 20 -40 0 0 -84 224 -575 262 -575 10 0 18 -12 18 -26 0 -14 45 -72
100 -128 55 -56 100 -107 100 -113 0 -24 447 -453 472 -453 16 0 28 -9 28 -20
0 -10 38 -38 85 -62 47 -23 103 -59 125 -78 102 -92 440 -241 447 -198 3 23
-7 56 -23 75 -15 18 -33 51 -39 73 -7 22 -31 94 -55 160 -41 112 -89 597 -66
662 5 12 82 27 176 34 110 8 195 26 248 53 44 23 91 41 104 41 13 0 78 26 146
58 67 32 173 78 236 102 63 24 125 57 138 72 34 41 99 34 178 -18 39 -26 138
-80 220 -121 83 -42 160 -89 173 -105 52 -68 350 -192 343 -143 -5 35 -33 54
-124 87 -72 25 -125 57 -134 80 -8 21 -51 77 -96 125 -239 252 -263 308 -153
354 101 42 166 37 182 -13 7 -23 70 -113 140 -199 70 -87 141 -183 157 -213
51 -94 43 143 -8 249 -22 46 -40 92 -40 102 0 10 -13 24 -30 30 -16 7 -30 24
-30 38 0 15 -18 62 -40 105 -22 43 -40 94 -40 112 0 18 -18 38 -40 44 -22 6
-40 27 -40 48 0 20 -18 53 -41 72 -27 24 -37 49 -29 75 8 26 2 43 -19 51 -17
7 -31 24 -31 39 0 15 -12 34 -27 43 -15 9 -43 61 -63 116 -20 55 -48 110 -63
122 -15 12 -64 93 -109 180 -46 87 -109 196 -141 242 -31 46 -57 92 -57 103 0
11 -20 45 -46 76 -25 32 -57 84 -72 117 -146 321 -197 312 -114 -20 67 -273
132 -543 142 -595 7 -35 24 -55 45 -55 23 0 63 -51 112 -142 90 -166 262 -429
292 -448 33 -20 24 -70 -14 -83 -19 -6 -65 -25 -102 -41 -99 -44 -130 13 -243
451 -13 52 -37 91 -56 96 -56 15 -229 374 -200 415 3 4 -8 24 -26 45 -17 20
-47 89 -67 152 -19 63 -42 119 -51 125 -9 5 -27 55 -40 110 -13 55 -32 105
-42 111 -10 6 -18 28 -18 48 0 54 -56 95 -72 53z m-515 -787 c15 -63 84 -199
122 -241 14 -15 39 -54 56 -86 17 -32 37 -58 46 -58 9 0 25 -17 35 -38 52
-109 323 -399 418 -447 165 -85 158 -153 -19 -193 -60 -13 -129 -40 -155 -59
-25 -19 -84 -51 -130 -72 -47 -20 -100 -53 -119 -74 -18 -20 -44 -37 -56 -37
-13 0 -61 -32 -107 -72 -105 -89 -99 -109 -111 392 -10 381 -57 938 -84 981
-17 29 9 59 52 59 25 0 43 -19 52 -55z m866 -1126 c-23 -44 -59 -52 -59 -13 0
34 42 75 63 62 10 -6 8 -28 -4 -49z m-1004 -89 c-5 -27 -4 -50 3 -50 11 0 32
-61 75 -223 10 -39 -28 -70 -55 -43 -10 10 -22 68 -26 129 -4 62 -18 131 -31
155 -24 45 -14 82 23 82 11 0 16 -22 11 -50z m785 10 c0 -25 -19 -48 -48 -59
-26 -10 -54 -28 -61 -40 -8 -12 -23 -16 -35 -9 -12 8 11 41 56 80 93 79 88 78
88 28z m-180 -150 c0 -17 -18 -30 -40 -30 -40 0 -52 21 -27 47 25 24 67 13 67
-17z"/>
<path d="M1348 5644 c6 -11 -4 -26 -23 -33 -32 -13 -32 -15 4 -36 29 -16 41
-15 47 2 4 13 16 18 26 12 10 -6 18 -4 18 5 0 9 -19 28 -42 43 -23 14 -37 17
-30 7z"/>
<path d="M2494 5125 c-12 -61 -1 -91 27 -74 24 15 25 129 1 129 -9 0 -22 -25
-28 -55z"/>
<path d="M5890 5033 c-22 -13 -43 -25 -47 -27 -4 -2 16 -28 43 -58 28 -29 46
-66 40 -81 -6 -15 5 -32 22 -39 22 -8 27 -20 14 -35 -12 -15 -9 -37 10 -62 25
-35 28 -29 28 66 0 65 -8 101 -20 93 -12 -7 -20 19 -20 68 0 91 -14 106 -70
75z"/>
<path d="M4364 4916 c-36 -36 -29 -56 17 -56 23 0 36 -8 30 -18 -6 -10 7 -14
29 -8 60 16 55 106 -6 106 -25 0 -57 -11 -70 -24z"/>
<path d="M142 4661 c0 -17 -6 -95 -14 -174 -19 -207 27 -861 65 -919 17 -25
25 -55 18 -67 -16 -26 25 -181 48 -181 10 0 14 -31 9 -69 -4 -38 1 -74 11 -81
11 -6 30 -50 42 -96 13 -46 49 -141 81 -212 33 -70 55 -132 49 -138 -6 -6 -1
-22 12 -37 17 -21 12 -27 -28 -27 -40 0 -56 17 -83 87 -18 47 -55 116 -82 153
-27 37 -55 97 -62 133 -7 36 -25 76 -40 89 -15 12 -28 34 -28 47 0 13 -23 68
-51 123 -28 54 -55 129 -60 167 -15 105 -29 99 -29 -11 0 -93 41 -207 100
-278 13 -16 18 -36 12 -46 -28 -47 155 -503 238 -592 53 -57 63 -101 30 -122
-11 -7 -20 -26 -20 -42 0 -17 9 -25 20 -18 11 7 26 -2 32 -19 7 -17 30 -31 51
-31 21 0 48 -22 61 -50 12 -27 30 -50 39 -50 37 0 14 -75 -28 -96 -36 -17 -38
-22 -10 -23 40 -1 42 -9 17 -94 -16 -57 -14 -61 25 -53 37 7 38 6 10 -13 -38
-24 -97 -8 -97 26 -1 15 -6 14 -17 -3 -9 -15 -14 18 -10 77 5 86 1 99 -22 80
-22 -18 -41 -2 -97 83 -80 121 -123 265 -66 218 18 -15 38 -23 44 -17 18 19
-32 97 -54 84 -10 -7 -29 16 -40 49 -12 34 -32 62 -45 62 -13 0 -41 31 -61 70
-21 38 -54 84 -75 103 -54 49 -52 -79 3 -168 22 -36 40 -93 40 -126 0 -35 13
-65 30 -72 16 -6 30 -31 30 -55 0 -24 12 -61 26 -83 15 -21 43 -82 62 -134 20
-53 53 -105 74 -116 21 -11 38 -37 38 -57 0 -20 18 -56 39 -81 22 -25 45 -62
51 -82 6 -19 24 -40 40 -46 15 -6 34 -42 41 -80 8 -44 26 -73 51 -79 21 -6 38
-28 38 -49 0 -22 18 -62 40 -90 22 -28 40 -58 40 -65 0 -8 19 -41 43 -74 37
-52 40 -67 18 -102 -21 -34 -21 -45 2 -63 15 -11 45 -55 67 -96 21 -41 47 -75
56 -75 9 0 11 -8 5 -19 -6 -10 -3 -24 9 -31 11 -7 20 -26 20 -43 0 -47 67
-121 104 -116 21 3 29 -5 23 -23 -6 -15 5 -34 25 -42 21 -7 58 -39 84 -70 26
-31 55 -52 63 -47 23 15 87 -63 72 -88 -8 -12 -1 -16 19 -8 22 8 36 -1 44 -30
6 -24 19 -43 28 -43 10 0 18 -14 18 -31 0 -19 9 -26 23 -17 16 10 20 -2 13
-39 -9 -45 -4 -53 38 -53 27 0 46 -11 45 -25 -10 -76 2 -122 25 -99 29 29 83
32 66 4 -7 -11 -3 -20 9 -20 36 0 23 -60 -14 -61 -71 -1 64 -58 140 -58 88 -1
93 17 25 91 -27 30 -50 67 -50 83 0 15 -32 67 -70 114 -113 137 -78 185 51 68
107 -99 261 -217 281 -217 10 0 59 -31 109 -70 81 -61 106 -70 206 -69 l113 1
-110 54 c-61 30 -139 74 -173 99 -35 25 -69 45 -75 45 -12 0 -306 185 -342
216 -32 27 -145 62 -158 49 -7 -6 -12 -1 -12 13 0 28 -119 142 -148 142 -22 0
-41 16 -225 194 -146 141 -254 324 -304 516 -58 218 -142 780 -144 960 0 66
-8 156 -18 200 -9 44 -36 169 -59 277 -23 109 -42 220 -42 248 0 28 -14 61
-31 73 -33 24 -96 285 -77 316 7 10 -1 34 -17 52 -50 59 -79 159 -66 221 10
42 1 84 -26 137 -121 234 -165 439 -157 729 4 134 1 154 -29 151 -19 -1 -34
-16 -35 -33z"/>
<path d="M3348 4009 c-15 -59 6 -124 31 -97 37 38 45 122 13 135 -22 8 -35 -3
-44 -38z"/>
<path d="M4970 3602 c-98 -16 -334 -113 -430 -176 -38 -25 -77 -46 -86 -46
-61 0 -374 -294 -374 -351 0 -57 69 -27 152 66 88 99 133 104 89 10 -106 -230
-17 -625 141 -625 30 0 98 -23 152 -51 78 -40 133 -52 277 -58 98 -4 231 -13
294 -21 139 -18 160 -4 229 149 111 246 126 555 36 728 -94 181 18 166 255
-34 216 -181 245 -283 154 -541 -84 -239 -4 -242 105 -5 50 107 49 436 0 525
-74 135 -314 285 -619 387 -183 62 -229 67 -375 43z m218 -205 c-10 -16 -4
-20 18 -11 39 15 97 -56 80 -98 -18 -47 -47 -31 -38 21 6 35 1 46 -18 38 -54
-20 -56 -127 -3 -127 43 -1 74 -33 84 -87 8 -43 2 -53 -31 -53 -22 0 -40 -10
-40 -23 0 -14 -15 -10 -37 10 -20 18 -46 33 -58 33 -28 0 -52 72 -34 101 7 12
-6 27 -29 33 -23 6 -42 19 -42 28 0 10 0 24 0 32 0 8 16 16 35 17 104 6 107 8
86 46 -20 38 -10 63 24 63 9 0 11 -11 3 -23z m-352 -21 c84 -84 -70 -365 -230
-417 -163 -54 -299 173 -171 286 120 106 350 182 401 131z m154 -246 c0 -53
-104 -92 -131 -49 -13 21 -7 39 24 65 54 44 107 36 107 -16z m-34 -134 c57
-57 1 -151 -75 -126 -29 9 -41 30 -41 70 0 73 66 106 116 56z m324 -54 c0 -10
22 -23 48 -30 65 -16 87 -137 45 -239 -29 -69 -33 -71 -93 -50 -85 29 -101 5
-32 -50 85 -68 65 -121 -47 -129 -64 -5 -96 2 -113 25 -18 25 -34 28 -77 11
-95 -36 -223 -24 -319 30 -49 28 -114 50 -144 50 -80 0 -128 68 -128 181 0
115 65 179 132 130 24 -18 49 -21 70 -10 44 23 58 5 58 -74 0 -78 69 -220 121
-248 169 -90 403 77 373 267 -7 47 2 76 32 109 42 47 74 58 74 27z m-203 -163
c-25 -45 -65 -85 -91 -92 -25 -6 -41 -19 -35 -29 6 -10 -12 -18 -40 -18 -32 0
-51 11 -51 30 0 17 -17 30 -38 30 -32 0 -61 48 -62 105 0 34 57 12 87 -33 27
-42 167 -90 141 -49 -19 32 53 137 94 137 40 0 40 -1 -5 -81z"/>
<path d="M5601 2825 c1 -8 33 -41 70 -72 l69 -57 0 72 c0 69 -3 72 -70 72 -38
0 -69 -7 -69 -15z"/>
<path d="M1014 2608 c-45 -46 -13 -110 51 -104 54 5 65 14 65 56 0 50 -80 83
-116 48z"/>
<path d="M2241 2495 c-1 -19 -11 -35 -24 -35 -13 0 -8 -17 13 -40 43 -48 70
-51 70 -9 0 19 9 26 23 17 15 -9 18 -5 8 10 -8 14 -20 19 -27 13 -7 -7 -23 8
-37 33 -21 37 -26 39 -26 11z"/>
<path d="M905 2444 c-60 -9 -57 -32 8 -62 62 -28 73 -21 52 30 -10 25 -31 36
-60 32z"/>
<path d="M1175 2336 c-14 -8 -49 -16 -79 -16 -29 0 -59 -9 -66 -20 -12 -19 13
-28 63 -22 12 1 28 -12 35 -30 10 -27 18 -28 44 -6 18 14 42 28 55 31 156 29
173 29 173 0 0 -16 -7 -33 -15 -38 -8 -5 -2 -5 13 -1 16 4 37 -4 47 -18 13
-18 15 -11 8 20 -7 34 -2 45 20 40 16 -3 28 -14 26 -24 -3 -19 40 -51 68 -52
10 0 7 14 -7 30 -28 33 -17 55 31 62 29 4 37 -30 30 -132 -3 -40 6 -32 46 40
51 93 51 120 2 120 -16 0 -29 9 -29 20 0 26 -102 26 -171 0 -37 -15 -62 -14
-80 0 -28 24 -175 21 -214 -4z"/>
<path d="M5688 2290 c3 -62 159 -59 168 4 6 39 -2 43 -82 40 -74 -3 -88 -10
-86 -44z"/>
<path d="M1888 2288 c-10 -3 -43 -10 -74 -17 -71 -16 -62 -47 22 -82 59 -25
96 -7 39 19 -14 6 4 7 40 3 36 -4 65 1 65 11 0 10 14 18 31 18 52 0 14 35 -48
44 -31 4 -65 6 -75 4z"/>
<path d="M2060 2240 c0 -11 -13 -20 -30 -20 -18 0 -30 -18 -30 -44 0 -41 2
-42 27 -7 26 36 126 28 103 -9 -6 -10 0 -24 13 -32 14 -9 18 -6 9 9 -9 14 -2
23 17 23 41 0 39 26 -6 67 -40 36 -103 44 -103 13z"/>
<path d="M5403 2227 c4 -21 28 -40 54 -44 36 -5 45 2 40 30 -4 21 -28 40 -54
44 -36 5 -45 -2 -40 -30z"/>
<path d="M5973 2244 c-9 -15 -12 -32 -6 -38 6 -6 -4 -25 -22 -43 -30 -31 -29
-34 3 -40 48 -9 56 3 48 80 -4 46 -11 59 -23 41z"/>
<path d="M4170 2220 c7 -12 23 -15 36 -7 16 9 16 4 -1 -14 -39 -43 -30 -52 45
-43 65 8 71 4 83 -55 8 -43 19 -57 33 -43 39 39 94 -14 94 -89 0 -38 7 -69 15
-69 8 0 15 32 15 70 0 39 -5 70 -11 70 -6 0 -12 18 -14 40 -2 28 10 40 38 40
31 0 37 -9 27 -40 -12 -38 -5 -39 134 -30 80 5 149 19 153 30 3 11 15 20 25
20 12 0 11 -16 -2 -40 -18 -33 -15 -40 15 -40 20 0 48 -11 61 -24 13 -13 29
-18 35 -11 7 6 -7 31 -30 54 -50 50 -35 100 17 53 30 -28 34 -27 36 6 3 42
-77 87 -123 69 -17 -6 -64 -12 -106 -14 -48 -2 -73 -12 -70 -28 3 -16 -12 -22
-40 -16 -25 4 -51 9 -59 10 -8 0 -10 14 -4 29 13 35 -63 83 -82 52 -19 -31
-149 -24 -183 10 -33 34 -157 42 -137 10z"/>
<path d="M5224 2144 c-26 -4 -51 -20 -57 -36 -6 -15 -26 -28 -44 -28 -29 1
-29 3 -3 20 17 11 21 20 9 20 -32 0 -69 -44 -69 -84 0 -45 38 -47 69 -4 21 29
25 29 50 0 17 -21 18 -32 3 -32 -12 0 -22 -9 -22 -20 0 -11 24 -20 54 -20 41
0 48 6 31 23 -14 14 -17 35 -6 55 9 18 18 41 19 52 1 11 10 20 20 20 10 0 24
6 31 13 18 18 -31 30 -85 21z"/>
<path d="M5802 2132 c-15 -17 -65 -27 -137 -28 -63 0 -153 -9 -200 -20 -47
-11 -85 -12 -85 -3 0 10 -14 12 -31 6 -22 -9 -24 -18 -8 -38 16 -19 16 -38 0
-68 -15 -27 -16 -41 -2 -41 12 0 21 13 21 30 0 20 15 27 45 22 25 -4 54 0 66
9 11 9 67 19 125 21 57 3 104 13 104 22 0 10 11 16 25 15 99 -13 208 47 151
84 -36 23 -48 21 -74 -11z"/>
<path d="M3216 2020 c-6 -40 -1 -53 18 -46 14 6 26 22 26 36 0 15 11 30 24 35
14 4 6 13 -18 19 -34 9 -44 1 -50 -44z"/>
<path d="M5971 1985 c-15 -105 -117 -411 -259 -769 -112 -287 -112 -275 -2
-489 50 -96 90 -187 90 -200 0 -14 16 -34 36 -45 20 -10 63 -72 95 -136 l59
-116 6 129 c6 116 0 137 -53 210 -132 180 -217 371 -178 400 19 14 35 36 35
48 0 13 7 23 16 23 8 0 17 23 19 51 3 28 18 77 35 109 16 32 30 71 30 87 0 45
49 76 76 49 19 -19 24 -13 24 21 0 36 -8 43 -37 34 -30 -10 -38 -2 -38 36 0
37 9 46 38 38 35 -9 37 7 37 303 0 325 -7 378 -29 217z"/>
<path d="M2651 1954 c-52 -80 -56 -158 -12 -229 67 -108 149 -76 91 35 -25 48
-27 77 -12 134 31 110 -10 147 -67 60z"/>
<path d="M3450 886 c-232 -48 -628 -57 -751 -16 -179 60 -178 -115 3 -372 46
-66 415 -134 463 -86 36 36 -16 68 -112 69 -102 1 -260 34 -308 65 -14 9 -25
47 -25 85 0 42 -15 84 -40 109 -57 57 -51 87 15 71 176 -42 228 -49 353 -50
76 -1 238 18 359 41 294 57 725 50 793 -12 114 -103 90 -182 -48 -158 -109 18
-193 15 -216 -8 -31 -31 13 -46 159 -53 176 -9 207 -22 187 -78 -20 -53 -264
-74 -553 -45 -194 19 -496 0 -478 -30 6 -10 34 -18 62 -18 34 0 54 -13 61 -40
11 -43 49 -57 41 -15 -4 18 34 24 145 22 766 -16 838 -2 851 167 12 145 -111
311 -261 355 -135 39 -506 38 -700 -3z"/>
<path d="M12 531 c-8 -83 -6 -166 4 -183 12 -22 22 22 31 134 7 92 5 174 -4
183 -10 10 -23 -51 -31 -134z"/>
<path d="M5650 425 c-44 -30 -83 -62 -87 -70 -3 -8 -14 -15 -23 -15 -10 0 -74
-38 -144 -85 -69 -47 -157 -101 -196 -119 -38 -18 -119 -57 -179 -85 l-109
-51 113 0 c62 0 118 9 125 20 7 11 26 20 42 20 17 0 25 -9 18 -20 -43 -69 75
0 171 101 108 114 117 119 167 96 59 -27 75 -18 82 47 3 25 6 53 7 61 2 8 21
15 42 15 41 0 81 54 81 109 0 43 -19 39 -110 -24z"/>
</g>
</svg>
